<?xml version="1.0" encoding="utf-8"?>
<!-- Generator: Adobe Illustrator 23.0.1, SVG Export Plug-In . SVG Version: 6.00 Build 0)  -->
<svg version="1.1" id="Capa_1" xmlns="http://www.w3.org/2000/svg" xmlns:xlink="http://www.w3.org/1999/xlink" x="0px" y="0px"
	 viewBox="0 0 512 512" style="enable-background:new 0 0 512 512;" xml:space="preserve">
<style type="text/css">
	.st0{fill:#FFFFFF;}
</style>
<g>
	<path class="st0" d="M256,8.5c-99.3,0-180,80.7-180,180c0,33.5,9.3,66.3,26.9,94.7l142.9,213.3c2.7,4.4,7.6,7.1,12.7,7.1
		c0,0,0.1,0,0.1,0c5.2,0,10.1-2.8,12.8-7.3l139.2-215.5c16.6-27.8,25.4-59.7,25.4-92.2C436,89.2,355.2,8.5,256,8.5z M256,272
		c-46.7,0-83.5-37.8-83.5-83.5c0-46,37.5-83.5,83.5-83.5c46,0,83.5,37.5,83.5,83.5C339.5,233.7,303.2,272,256,272z"/>
</g>
</svg>
