<?xml version="1.0" encoding="utf-8"?>
<!-- Generator: Adobe Illustrator 23.0.1, SVG Export Plug-In . SVG Version: 6.00 Build 0)  -->
<svg version="1.1" id="Capa_1" xmlns="http://www.w3.org/2000/svg" xmlns:xlink="http://www.w3.org/1999/xlink" x="0px" y="0px"
	 viewBox="0 0 512 512" style="enable-background:new 0 0 512 512;" xml:space="preserve">
<style type="text/css">
	.st0{fill:#FFFFFF;}
</style>
<g>
	<g>
		<path class="st0" d="M256,8.5c-99.3,0-180,80.7-180,180c0,33.5,9.3,66.3,26.9,94.7l142.9,213.3c2.7,4.4,7.6,7.1,12.7,7.1
			c0,0,0.1,0,0.1,0c5.2,0,10.1-2.8,12.8-7.3l139.2-215.5c16.6-27.8,25.4-59.7,25.4-92.2C436,89.2,355.2,8.5,256,8.5z M384.8,265.3
			L258.2,459.7L128.3,267.3c-14.6-23.6-22.6-50.9-22.6-78.8c0-82.7,67.5-150.2,150.2-150.2s150.1,67.5,150.1,150.2
			C406.1,215.6,398.6,242.2,384.8,265.3z"/>
	</g>
</g>
<g>
	<g>
		<path class="st0" d="M256,98.5c-49.6,0-90,40.4-90,90c0,49.3,39.7,90,90,90c50.9,0,90-41.2,90-90C346,138.9,305.6,98.5,256,98.5z
			 M256,248.7c-33.3,0-60.2-27-60.2-60.2c0-33.1,27.1-60.2,60.2-60.2s60.1,27.1,60.1,60.2C316.1,221.2,289.7,248.7,256,248.7z"/>
	</g>
</g>
</svg>
