<?xml version="1.0" encoding="utf-8"?>
<!-- Generator: Adobe Illustrator 23.0.1, SVG Export Plug-In . SVG Version: 6.00 Build 0)  -->
<svg version="1.1" id="Capa_1" xmlns="http://www.w3.org/2000/svg" xmlns:xlink="http://www.w3.org/1999/xlink" x="0px" y="0px"
	 viewBox="0 0 432.4 432.4" style="enable-background:new 0 0 432.4 432.4;" xml:space="preserve">
<style type="text/css">
	.st0{fill:#FFFFFF;}
</style>
<g>
	<g>
		<g>
			<path class="st0" d="M216.5,97.9c-61.5,0-111.8,50.3-111.8,111.8c0,32.2,14.1,63.1,37.8,84.1c17.7,17.7,16.1,55.5,15.7,55.9
				c0,2,0.4,3.6,2,5.2c1.2,1.2,3.2,2,4.8,2h102.6c2,0,3.6-0.8,4.8-2c1.2-1.2,2-3.2,2-5.2c0-0.4-2-38.2,15.7-55.9
				c0.4-0.4,0.8-0.8,1.2-1.2c23.3-21.3,37-51.5,37-82.8C328.3,148.2,278.1,97.9,216.5,97.9z M280.9,283.3c-0.4,0.4-1.2,1.2-1.2,1.6
				c-15.7,16.9-18.5,44.6-18.9,57.9h-88.9c-0.4-13.3-3.2-42.2-20.1-59.5c-21.3-18.5-33.8-45.4-33.8-74c0-54.3,43.8-98.1,98.1-98.1
				s98.1,43.8,98.1,98.1C314.3,237.9,302.2,264.8,280.9,283.3z"/>
			<path class="st0" d="M212.8,131.3c-3.6,0-6.8,3.2-6.8,6.8s3.2,6.8,6.8,6.8c40.6,0,73.2,33,73.2,73.2c0,3.6,3.2,6.8,6.8,6.8
				c3.6,0,6.8-3.2,6.8-6.8C300.1,170.3,261.1,131.3,212.8,131.3z"/>
			<path class="st0" d="M261.2,345.4h-89.3c-9.3,0-16.9,7.6-16.9,16.9s7.6,16.9,16.9,16.9h88.9c9.7-0.4,17.3-7.6,17.3-16.9
				S270.4,345.4,261.2,345.4z M261.6,369.9h-91.7c-2.5,0-5.3-3.2-5.3-7.2c0-4,2.4-7.2,5.3-7.2h91.2c2.9,0,6.6,2.2,6.6,7.2
				C267.8,366.7,264.4,369.9,261.6,369.9z"/>
			<path class="st0" d="M255.7,369.9h-78.4c-8.1,0-14.8,7.6-14.8,16.9c0,9.3,6.7,16.9,14.8,16.9h78c8.5-0.4,15.2-7.6,15.2-16.9
				C270.5,377.5,263.8,369.9,255.7,369.9z M256.1,394.4h-80.4c-2.2,0-4.7-3.2-4.7-7.2c0-4,2.1-7.2,4.7-7.2h80.1
				c2.6,0,5.8,2.2,5.8,7.2C261.5,391.2,258.5,394.4,256.1,394.4z"/>
			<path class="st0" d="M255.7,394.4h-78.4c-8.1,0-14.8,7.6-14.8,16.9s6.7,16.9,14.8,16.9h78c8.5-0.4,15.2-7.6,15.2-16.9
				S263.8,394.4,255.7,394.4z M256.1,418.9h-80.4c-2.2,0-4.7-3.2-4.7-7.2s2.1-7.2,4.7-7.2h80.1c2.6,0,5.8,2.2,5.8,7.2
				C261.5,415.7,258.5,418.9,256.1,418.9z"/>
			<path class="st0" d="M216.1,64.6c4,0,6.8-3.2,6.8-6.8V11.1c0-3.6-3.2-6.8-6.8-6.8c-3.6,0-6.8,3.2-6.8,6.8v46.7
				C209.3,61.3,212.5,64.6,216.1,64.6z"/>
			<path class="st0" d="M329.9,38.8c-3.2-2.4-7.2-1.2-9.3,1.6L295,79c-2.4,3.2-1.6,7.6,1.6,9.7c1.2,0.8,2.4,1.2,3.6,1.2
				c2.4,0,4.4-1.2,5.6-3.2l25.7-38.6C334,45.3,333.2,40.8,329.9,38.8z"/>
			<path class="st0" d="M134.5,88.3c1.2,0,2.4-0.4,3.6-1.2c3.2-2,4-6.4,2-9.7l-24.9-39c-2-3.2-6.4-4-9.7-2s-4,6.4-2,9.7l24.9,39
				C130.1,87.5,132.1,88.3,134.5,88.3z"/>
			<path class="st0" d="M85.8,130.9l-40.6-22.1c-3.2-1.6-7.6-0.4-9.3,2.8c-2,3.2-0.8,7.6,2.8,9.3L79.4,143c1.2,0.4,2,0.8,3.2,0.8
				c2.4,0,4.8-1.2,6-3.6C90.2,136.9,89,132.5,85.8,130.9z"/>
			<path class="st0" d="M396.7,111.6c-1.6-3.2-6-4.4-9.3-2.8l-41,22.1c-3.2,1.6-4.4,6-2.8,9.3c1.2,2.4,3.6,3.6,6,3.6
				c1.2,0,2.4-0.4,3.2-0.8l41-22.1C397.1,119.3,398.3,114.8,396.7,111.6z"/>
		</g>
	</g>
</g>
</svg>
