<?xml version="1.0" encoding="utf-8"?>
<!-- Generator: Adobe Illustrator 23.0.1, SVG Export Plug-In . SVG Version: 6.00 Build 0)  -->
<svg version="1.1" id="Capa_1" xmlns="http://www.w3.org/2000/svg" xmlns:xlink="http://www.w3.org/1999/xlink" x="0px" y="0px"
	 viewBox="0 0 512 512" style="enable-background:new 0 0 512 512;" xml:space="preserve">
<style type="text/css">
	.st0{fill:#FFFFFF;}
</style>
<g>
	<g>
		<path class="st0" d="M312,0C201.7,0,112,89.7,112,200c0,39.6,11.5,77.5,33.2,110.2L11.7,443.7C4.2,451.3,0,461.3,0,472
			s4.2,20.7,11.7,28.3C19.3,507.8,29.3,512,40,512s20.7-4.2,28.3-11.7l133.5-133.5C234.5,388.5,272.4,400,312,400
			c110.3,0,200-89.7,200-200S422.3,0,312,0z M157.1,383.2L157.1,383.2l-103,103c-3.8,3.8-8.8,5.9-14.1,5.9s-10.4-2.1-14.1-5.9
			c-3.8-3.8-5.9-8.8-5.9-14.1s2.1-10.4,5.9-14.1l103-103l0,0l0,0l28.4-28.4c8.5,10.3,17.9,19.8,28.3,28.3L157.1,383.2z M312,380
			c-38.2,0-74.7-11.9-105.5-34.3c-15.5-11.2-29-24.7-40.2-40.2l0,0C143.9,274.7,132,238.2,132,200c0-99.3,80.7-180,180-180
			s180,80.7,180,180S411.3,380,312,380z"/>
	</g>
</g>
<g>
	<g>
		<path class="st0" d="M370.2,326.4c22.4-8.6,41.6-23.6,55.4-43.4c14.2-20.2,21.7-44,21.7-68.7c0-5.5-4.5-10-10-10s-10,4.5-10,10
			c0,41.1-25.8,78.6-64.2,93.4c-4,1.5-6.4,5.3-6.4,9.3c0,1.2,0.2,2.4,0.7,3.6C359.3,325.8,365.1,328.3,370.2,326.4z"/>
	</g>
</g>
</svg>
