<?xml version="1.0" encoding="utf-8"?>
<!-- Generator: Adobe Illustrator 23.0.1, SVG Export Plug-In . SVG Version: 6.00 Build 0)  -->
<svg version="1.1" id="Capa_1" xmlns="http://www.w3.org/2000/svg" xmlns:xlink="http://www.w3.org/1999/xlink" x="0px" y="0px"
	 viewBox="0 0 128.4 128.4" style="enable-background:new 0 0 128.4 128.4;" xml:space="preserve">
<style type="text/css">
	.st0{fill:#FFFFFF;}
</style>
<g>
	<path class="st0" d="M64.2,128.4C28.8,128.4,0,99.6,0,64.2S28.8,0,64.2,0c35.4,0,64.2,28.8,64.2,64.2S99.6,128.4,64.2,128.4z
		 M64.2,5C31.5,5,5,31.5,5,64.2s26.6,59.2,59.2,59.2c32.7,0,59.2-26.6,59.2-59.2S96.9,5,64.2,5z"/>
</g>
<g>
	<path class="st0" d="M75.1,49.7l-0.9-3.5h-14l-1.5,12c1-0.7,2.1-1.3,3.5-1.8s2.9-0.7,4.5-0.7c5-0.1,8.9,1.4,11.6,4.5
		c2.7,3.1,4.1,7.4,4.1,12.9c0,5-1.5,9.2-4.5,12.5c-3,3.3-7.4,5-13,5c-4.8,0-8.8-1.3-12.3-3.9c-3.4-2.6-5-6.2-4.9-10.8l0.1-0.2
		l10-0.5c0,2.3,0.7,4.1,2,5.4c1.3,1.3,3,1.9,5.1,1.9c2.4,0,4.2-0.9,5.4-2.6c1.2-1.7,1.8-4,1.8-6.8c0-3-0.6-5.4-1.9-7.2
		c-1.2-1.8-3.1-2.7-5.5-2.7c-2,0-3.5,0.4-4.6,1.1c-1.1,0.7-1.8,1.7-2.3,3l-9.2-0.6l3-29h29.9v11.9H75.1z"/>
</g>
</svg>
