<?xml version="1.0" encoding="utf-8"?>
<!-- Generator: Adobe Illustrator 23.0.1, SVG Export Plug-In . SVG Version: 6.00 Build 0)  -->
<svg version="1.1" id="Capa_1" xmlns="http://www.w3.org/2000/svg" xmlns:xlink="http://www.w3.org/1999/xlink" x="0px" y="0px"
	 viewBox="0 0 128.4 128.4" style="enable-background:new 0 0 128.4 128.4;" xml:space="preserve">
<style type="text/css">
	.st0{fill:#FFFFFF;}
</style>
<g>
	<path class="st0" d="M64.2,128.4C28.8,128.4,0,99.6,0,64.2S28.8,0,64.2,0c35.4,0,64.2,28.8,64.2,64.2S99.6,128.4,64.2,128.4z
		 M64.2,5C31.5,5,5,31.5,5,64.2s26.6,59.2,59.2,59.2c32.7,0,59.2-26.6,59.2-59.2S96.9,5,64.2,5z"/>
</g>
<g>
	<path class="st0" d="M75.9,70.5h5.9v6.9h-5.9v5.1l5.5,1.1v6.3H59.9v-6.3l5.6-1.1v-5.1H44.2l-0.5-5.1l21.6-34.5h10.5V70.5z
		 M53.5,70.5h12V51.7l-0.2-0.1l-0.9,1.5L53.5,70.5z"/>
</g>
</svg>
