<?xml version="1.0" encoding="utf-8"?>
<!-- Generator: Adobe Illustrator 23.0.1, SVG Export Plug-In . SVG Version: 6.00 Build 0)  -->
<svg version="1.1" id="Capa_1" xmlns="http://www.w3.org/2000/svg" xmlns:xlink="http://www.w3.org/1999/xlink" x="0px" y="0px"
	 viewBox="0 0 128.4 128.4" style="enable-background:new 0 0 128.4 128.4;" xml:space="preserve">
<style type="text/css">
	.st0{fill:#FFFFFF;}
</style>
<g>
	<path class="st0" d="M64.2,128.4C28.8,128.4,0,99.6,0,64.2S28.8,0,64.2,0c35.4,0,64.2,28.8,64.2,64.2S99.6,128.4,64.2,128.4z
		 M64.2,5C31.5,5,5,31.5,5,64.2s26.6,59.2,59.2,59.2c32.7,0,59.2-26.6,59.2-59.2S96.9,5,64.2,5z"/>
</g>
<g>
	<path class="st0" d="M65.3,37.1c2,0,3.8,0.2,5.4,0.6c1.7,0.4,3.3,0.9,5,1.6l-1.8,7.6c-1.5-0.5-2.9-0.9-4.1-1.2
		c-1.3-0.3-2.7-0.4-4.4-0.4c-3.1,0-5.6,1.1-7.4,3.4c-1.9,2.3-2.8,5.6-2.8,10l0.1,0.2c1.2-1.2,2.6-2.2,4.4-2.9c1.8-0.7,3.8-1,6-1
		c4.6,0,8.3,1.6,10.9,4.9c2.6,3.3,4,7.5,4,12.6c0,5.2-1.6,9.6-4.9,13c-3.3,3.4-7.5,5.1-12.6,5.1c-5.5,0-9.9-1.9-13.4-5.6
		c-3.5-3.7-5.2-8.9-5.2-15.5v-9.1c0-7.4,1.9-13.1,5.8-17.2S59.2,37.1,65.3,37.1z M62.9,62.8c-1.9,0-3.6,0.3-4.9,0.9
		c-1.4,0.6-2.4,1.5-3.1,2.5v3.5c0,4.1,0.7,7.3,2.2,9.5c1.5,2.2,3.5,3.3,5.9,3.3c2.1,0,3.9-1,5.2-2.9c1.3-2,1.9-4.3,1.9-7.1
		c0-2.9-0.7-5.2-2-7C66.8,63.7,65.1,62.8,62.9,62.8z"/>
</g>
</svg>
