<?xml version="1.0" encoding="utf-8"?>
<!-- Generator: Adobe Illustrator 23.0.1, SVG Export Plug-In . SVG Version: 6.00 Build 0)  -->
<svg version="1.1" id="Capa_1" xmlns="http://www.w3.org/2000/svg" xmlns:xlink="http://www.w3.org/1999/xlink" x="0px" y="0px"
	 viewBox="0 0 128.4 128.4" style="enable-background:new 0 0 128.4 128.4;" xml:space="preserve">
<style type="text/css">
	.st0{fill:#FFFFFF;}
</style>
<g>
	<path class="st0" d="M64.2,128.4C28.8,128.4,0,99.6,0,64.2S28.8,0,64.2,0s64.2,28.8,64.2,64.2S99.6,128.4,64.2,128.4z M64.2,5
		C31.5,5,5,31.5,5,64.2s26.6,59.2,59.2,59.2s59.2-26.6,59.2-59.2S96.9,5,64.2,5z"/>
</g>
<g>
	<path class="st0" d="M57.6,59.4h5.9c2.5,0,4.3-0.6,5.5-1.9c1.2-1.3,1.8-3.1,1.8-5.4c0-2.1-0.6-3.8-1.8-5c-1.2-1.3-2.9-1.9-5.2-1.9
		c-2,0-3.6,0.6-4.9,1.7c-1.3,1.1-2,2.6-2,4.5H46.8l-0.1-0.2c-0.1-4.1,1.4-7.4,4.7-10.1c3.3-2.6,7.3-4,12.1-4c5.4,0,9.7,1.3,12.9,3.9
		c3.2,2.6,4.8,6.2,4.8,11c0,2.3-0.7,4.4-2.1,6.4c-1.4,2-3.4,3.6-5.9,4.8c2.9,1,5.1,2.6,6.6,4.7c1.5,2.1,2.3,4.6,2.3,7.4
		c0,4.8-1.7,8.5-5.2,11.2c-3.5,2.7-7.9,4.1-13.3,4.1c-4.8,0-9-1.3-12.5-3.8c-3.5-2.6-5.1-6.2-5-10.8l0.1-0.2h10.1
		c0,2,0.7,3.7,2.1,4.9c1.4,1.3,3.2,1.9,5.4,1.9c2.4,0,4.3-0.7,5.7-2c1.4-1.3,2.1-3.1,2.1-5.4c0-2.7-0.7-4.7-2.1-6
		c-1.4-1.3-3.4-1.9-6.1-1.9h-5.9V59.4z"/>
</g>
</svg>
