<?xml version="1.0" encoding="utf-8"?>
<!-- Generator: Adobe Illustrator 23.0.1, SVG Export Plug-In . SVG Version: 6.00 Build 0)  -->
<svg version="1.1" id="Capa_1" xmlns="http://www.w3.org/2000/svg" xmlns:xlink="http://www.w3.org/1999/xlink" x="0px" y="0px"
	 viewBox="0 0 128.4 128.4" style="enable-background:new 0 0 128.4 128.4;" xml:space="preserve">
<style type="text/css">
	.st0{fill:#FFFFFF;}
</style>
<g>
	<path class="st0" d="M64.2,128.4C28.8,128.4,0,99.6,0,64.2S28.8,0,64.2,0s64.2,28.8,64.2,64.2S99.6,128.4,64.2,128.4z M64.2,5
		C31.5,5,5,31.5,5,64.2s26.6,59.2,59.2,59.2s59.2-26.6,59.2-59.2S96.9,5,64.2,5z"/>
</g>
<g>
	<path class="st0" d="M47.6,89.8V83l16.8-18c2.4-2.8,4.2-5.1,5.2-7.1c1-1.9,1.5-3.7,1.5-5.3c0-2.2-0.6-4-1.8-5.4
		c-1.2-1.4-2.9-2.1-5-2.1c-2.4,0-4.2,0.8-5.5,2.4S57,51.3,57,54.1H46.9l-0.1-0.2c-0.1-4.7,1.4-8.7,4.6-11.9c3.2-3.3,7.5-4.9,13-4.9
		c5.4,0,9.6,1.4,12.6,4.2s4.6,6.5,4.6,11.1c0,3.1-0.9,6.1-2.6,8.7c-1.7,2.7-4.6,6.1-8.6,10.4l-9.3,10.1l0.1,0.2h13.5l0.4-5.1h7.9
		v13.1H47.6z"/>
</g>
</svg>
